<svg height="510" width="720" xmlns="http://www.w3.org/2000/svg">
<rect height="510" fill="#555" width="720"></rect>
<text fill="#7f7" font-family="Courier New" font-size="12" xml:space="preserve">
<tspan x="10" y="26">2017-04-17 15:49:31 +0000</tspan>
<tspan x="10" y="42">[npm publishAfterCommit]</tspan>
<tspan x="10" y="58"></tspan>
<tspan x="10" y="74">2017-04-17 19:28:56 +0800</tspan>
<tspan x="10" y="90">[npm publishAfterCommitAfterBuild]</tspan>
<tspan x="10" y="106">2017-04-11 05:06:35 +0000</tspan>
<tspan x="10" y="122">[ci skip] npm published</tspan>
<tspan x="10" y="138"></tspan>
<tspan x="10" y="154">2017-04-11 12:40:51 +0800</tspan>
<tspan x="10" y="170">[npm publishAfterCommitAfterBuild]</tspan>
<tspan x="10" y="186">2017-04-08 05:53:13 +0000</tspan>
<tspan x="10" y="202">[ci skip] npm published</tspan>
<tspan x="10" y="218"></tspan>
<tspan x="10" y="234">2017-04-08 13:04:51 +0800</tspan>
<tspan x="10" y="250">[npm publishAfterCommitAfterBuild]</tspan>
<tspan x="10" y="266">2017-04-07 18:26:07 +0000</tspan>
<tspan x="10" y="282">[ci skip] npm published</tspan>
<tspan x="10" y="298"></tspan>
<tspan x="10" y="314">2017-04-07 17:59:59 +0800</tspan>
<tspan x="10" y="330">[npm publishAfterCommitAfterBuild]</tspan>
<tspan x="10" y="346">2017-03-26 17:28:37 +0800</tspan>
<tspan x="10" y="362">[npm publishAfterCommit]</tspan>
<tspan x="10" y="378">2017-03-25 11:26:43 +0000</tspan>
<tspan x="10" y="394">[npm publishAfterCommit]</tspan>
<tspan x="10" y="410"></tspan>
<tspan x="10" y="426">2017-03-25 10:43:10 +0000</tspan>
<tspan x="10" y="442">[npm publishAfterCommitAfterBuild]</tspan>
<tspan x="10" y="458"></tspan>
<tspan x="10" y="474">2014-03-26 02:31:50 +0700</tspan>
<tspan x="10" y="490">add blank README.md</tspan>
</text>
</svg>
