<svg height="1566" width="720" xmlns="http://www.w3.org/2000/svg">
<rect height="1566" fill="#555" width="720"></rect>
<text fill="#7f7" font-family="Courier New" font-size="12" xml:space="preserve">
<tspan x="10" y="26"></tspan>
<tspan x="10" y="42">&gt; npmdoc-gulp-sass@0.0.6 test /home/travis/build/npmdoc/node-npmdoc-gulp-sass</tspan>
<tspan x="10" y="58">&gt; (set -e; export PORT=$(utility2 shServerPortRandom); utility2 test test.js)</tspan>
<tspan x="10" y="74"></tspan>
<tspan x="10" y="90"></tspan>
<tspan x="10" y="106">[MODE_BUILD=npmTest] - 2017-04-11T05:05:32Z - npm-testing /home/travis/build/npmdoc/node-npmdoc-\</tspan>
<tspan x="10" y="122">gulp-sass</tspan>
<tspan x="10" y="138"></tspan>
<tspan x="10" y="154">merging file:///home/travis/build/npmdoc/node-npmdoc-gulp-sass/tmp/build/test-report.json to tes\</tspan>
<tspan x="10" y="170">t-report</tspan>
<tspan x="10" y="186">&gt; server listening on http-port 40422</tspan>
<tspan x="10" y="202">created apidoc file:///home/travis/build/npmdoc/node-npmdoc-gulp-sass/tmp/build/apidoc.html</tspan>
<tspan x="10" y="218"></tspan>
<tspan x="10" y="234"></tspan>
<tspan x="10" y="250">browserTest - created electron entry-page /home/travis/build/npmdoc/node-npmdoc-gulp-sass/tmp/el\</tspan>
<tspan x="10" y="266">ectron.15b5b6716030.f85c004a6de62.html</tspan>
<tspan x="10" y="282"></tspan>
<tspan x="10" y="298">[node test-case 1 of 6 passed] - testCase_buildLib_default</tspan>
<tspan x="10" y="314">[node test-case 2 of 6 passed] - testCase_buildReadme_default</tspan>
<tspan x="10" y="330">[node test-case 3 of 6 passed] - testCase_buildTest_default</tspan>
<tspan x="10" y="346"></tspan>
<tspan x="10" y="362">browserTest - created electron entry-page /home/travis/build/npmdoc/node-npmdoc-gulp-sass/tmp/el\</tspan>
<tspan x="10" y="378">ectron.15b5b6716430.1de68fec24bcf.html</tspan>
<tspan x="10" y="394"></tspan>
<tspan x="10" y="410">(node:5952) DeprecationWarning: node --debug is deprecated. Please use node --inspect instead.</tspan>
<tspan x="10" y="426">Xlib:  extension "RANDR" missing on display ":99.0".</tspan>
<tspan x="10" y="442">Xlib:  extension "RANDR" missing on display ":99.0".</tspan>
<tspan x="10" y="458">merging file:///home/travis/build/npmdoc/node-npmdoc-gulp-sass/tmp/build/test-report.json to tes\</tspan>
<tspan x="10" y="474">t-report</tspan>
<tspan x="10" y="490">Xlib:  extension "RANDR" missing on display ":99.0".</tspan>
<tspan x="10" y="506">[5976:0411/050534:WARNING:audio_manager.cc(314)] Multiple instances of AudioManager detected</tspan>
<tspan x="10" y="522">[5976:0411/050534:WARNING:audio_manager.cc(275)] Multiple instances of AudioManager detected</tspan>
<tspan x="10" y="538">[6005:0411/050534:ERROR:sandbox_linux.cc(343)] InitializeSandbox() called with multiple threads \</tspan>
<tspan x="10" y="554">in process gpu-process. </tspan>
<tspan x="10" y="570">[5976:0411/050535:ERROR:browser_gpu_channel_host_factory.cc(131)] Failed to create channel.</tspan>
<tspan x="10" y="586">merging file:///home/travis/build/npmdoc/node-npmdoc-gulp-sass/tmp/build/test-report.json to tes\</tspan>
<tspan x="10" y="602">t-report</tspan>
<tspan x="10" y="618">Xlib:  extension "RANDR" missing on display ":99.0".</tspan>
<tspan x="10" y="634">[5980:0411/050535:WARNING:audio_manager.cc(314)] Multiple instances of AudioManager detected</tspan>
<tspan x="10" y="650">[5980:0411/050535:WARNING:audio_manager.cc(275)] Multiple instances of AudioManager detected</tspan>
<tspan x="10" y="666"></tspan>
<tspan x="10" y="682">browserTest - opened url /home/travis/build/npmdoc/node-npmdoc-gulp-sass/tmp/build/apidoc.html</tspan>
<tspan x="10" y="698"></tspan>
<tspan x="10" y="714">[6044:0411/050535:ERROR:sandbox_linux.cc(343)] InitializeSandbox() called with multiple threads \</tspan>
<tspan x="10" y="730">in process gpu-process. </tspan>
<tspan x="10" y="746">[5980:0411/050535:ERROR:browser_gpu_channel_host_factory.cc(131)] Failed to create channel.</tspan>
<tspan x="10" y="762">&gt; </tspan>
<tspan x="10" y="778">browserTest - opened url http://127.0.0.1:40422?modeTest=1</tspan>
<tspan x="10" y="794"></tspan>
<tspan x="10" y="810">server listening on http-port 40849</tspan>
<tspan x="10" y="826">[node test-case 4 of 6 passed] - testCase_buildApp_default</tspan>
<tspan x="10" y="842"></tspan>
<tspan x="10" y="858">browserTest - created screenCapture file:///home/travis/build/npmdoc/node-npmdoc-gulp-sass/tmp/b\</tspan>
<tspan x="10" y="874">uild/screenCapture.npmTest.browser.%2Fhome%2Ftravis%2Fbuild%2Fnpmdoc%2Fnode-npmdoc-gulp-sass%2Ft\</tspan>
<tspan x="10" y="890">mp%2Fbuild%2Fapidoc.html.png</tspan>
<tspan x="10" y="906"></tspan>
<tspan x="10" y="922">browserTest - created screenCapture file:///home/travis/build/npmdoc/node-npmdoc-gulp-sass/tmp/b\</tspan>
<tspan x="10" y="938">uild/screenCapture.npmTest.browser.%2Fhome%2Ftravis%2Fbuild%2Fnpmdoc%2Fnode-npmdoc-gulp-sass%2Ft\</tspan>
<tspan x="10" y="954">mp%2Fbuild%2Fapidoc.html.html</tspan>
<tspan x="10" y="970"></tspan>
<tspan x="10" y="986">browserTest - exit-code 0 - /home/travis/build/npmdoc/node-npmdoc-gulp-sass/tmp/build/apidoc.htm\</tspan>
<tspan x="10" y="1002">l</tspan>
<tspan x="10" y="1018"></tspan>
<tspan x="10" y="1034">[node test-case 5 of 6 passed] - testCase_buildApidoc_default</tspan>
<tspan x="10" y="1050"></tspan>
<tspan x="10" y="1066">browserTest - created screenCapture file:///home/travis/build/npmdoc/node-npmdoc-gulp-sass/tmp/b\</tspan>
<tspan x="10" y="1082">uild/screenCapture.npmTest.browser.%2F.png</tspan>
<tspan x="10" y="1098"></tspan>
<tspan x="10" y="1114">browserTest - created screenCapture file:///home/travis/build/npmdoc/node-npmdoc-gulp-sass/tmp/b\</tspan>
<tspan x="10" y="1130">uild/screenCapture.npmTest.browser.%2F.html</tspan>
<tspan x="10" y="1146">[5980:0411/050551:WARNING:ipc_message_attachment_set.cc(57)] MessageAttachmentSet destroyed with\</tspan>
<tspan x="10" y="1162"> unconsumed descriptors: 0/1</tspan>
<tspan x="10" y="1178"></tspan>
<tspan x="10" y="1194">browserTest - exit-code 0 - http://127.0.0.1:40422?modeTest=1</tspan>
<tspan x="10" y="1210"></tspan>
<tspan x="10" y="1226"></tspan>
<tspan x="10" y="1242">browserTest - merging test-report from /home/travis/build/npmdoc/node-npmdoc-gulp-sass/tmp/test-\</tspan>
<tspan x="10" y="1258">report.npmTest.browser.%2F.json</tspan>
<tspan x="10" y="1274"></tspan>
<tspan x="10" y="1290">[node test-case 6 of 6 passed] - testCase_webpage_default</tspan>
<tspan x="10" y="1306">merging file:///home/travis/build/npmdoc/node-npmdoc-gulp-sass/tmp/build/test-report.json to tes\</tspan>
<tspan x="10" y="1322">t-report</tspan>
<tspan x="10" y="1338"></tspan>
<tspan x="10" y="1354">-------------------------------------------------------</tspan>
<tspan x="10" y="1370">| test-report - buildCustomOrg - node - linux v7.8.0 - 2017-04-11T05:05:04.280Z</tspan>
<tspan x="10" y="1386">|   45752 ms            0 failed        6 passed      |</tspan>
<tspan x="10" y="1402">-------------------------------------------------------</tspan>
<tspan x="10" y="1418"></tspan>
<tspan x="10" y="1434">created test-report file:///home/travis/build/npmdoc/node-npmdoc-gulp-sass/tmp/build/test-report\</tspan>
<tspan x="10" y="1450">.html</tspan>
<tspan x="10" y="1466"></tspan>
<tspan x="10" y="1482"></tspan>
<tspan x="10" y="1498">npmTest - 0 failed tests</tspan>
<tspan x="10" y="1514"></tspan>
<tspan x="10" y="1530"></tspan>
<tspan x="10" y="1546">[MODE_BUILD=npmTest] - 2017-04-11T05:05:52Z - EXIT_CODE - 0</tspan>
</text>
</svg>
